<?xml version="1.0" encoding="UTF-8"?>
<!-- Generator: visioncortex VTracer 0.6.3 -->
<svg version="1.1" xmlns="http://www.w3.org/2000/svg" width="1280" height="1280">
<path d="M0 0 C1.11 -0 2.23 -0.01 3.38 -0.01 C5.24 -0 5.24 -0 7.14 -0 C8.45 -0 9.76 -0 11.11 -0 C14.78 -0.01 18.45 -0.01 22.13 -0 C26.11 -0 30.09 -0 34.07 -0.01 C41.06 -0.01 48.05 -0.01 55.04 -0.01 C65.43 -0 75.82 -0.01 86.22 -0.01 C104.78 -0.01 123.33 -0.01 141.89 -0.01 C158.13 -0.01 174.37 -0.01 190.61 -0.01 C192.23 -0.01 192.23 -0.01 193.87 -0.01 C198.24 -0.01 202.6 -0.01 206.97 -0.01 C247.95 -0.01 288.94 -0.01 329.92 -0 C366.37 0 402.82 -0 439.26 -0.01 C480.17 -0.01 521.08 -0.01 561.99 -0.01 C566.34 -0.01 570.7 -0.01 575.06 -0.01 C576.67 -0.01 576.67 -0.01 578.31 -0.01 C594.54 -0.01 610.78 -0.01 627.01 -0.01 C645.46 -0.01 663.91 -0.01 682.36 -0.01 C692.7 -0 703.04 -0 713.38 -0.01 C720.27 -0.01 727.16 -0.01 734.05 -0 C737.99 -0 741.93 -0 745.86 -0.01 C750.09 -0.01 754.31 -0.01 758.54 -0 C760.4 -0 760.4 -0 762.3 -0.01 C763.97 -0 763.97 -0 765.68 0 C766.65 0 767.61 0 768.61 0 C770.9 0.13 770.9 0.13 772.9 1.13 C770.61 30.81 767.9 60.45 765.15 90.1 C764.58 96.18 764.02 102.26 763.46 108.35 C762.33 120.52 761.21 132.69 760.08 144.86 C759.02 156.33 757.96 167.8 756.9 179.27 C756.8 180.31 756.8 180.31 756.7 181.37 C756.38 184.88 756.05 188.38 755.73 191.88 C755.08 198.9 754.43 205.93 753.78 212.95 C753.69 213.99 753.69 213.99 753.59 215.06 C752.61 225.67 751.62 236.28 750.64 246.89 C747.03 285.91 743.43 324.94 739.82 363.96 C739.57 366.72 739.32 369.47 739.06 372.23 C738.02 383.54 736.97 394.85 735.93 406.16 C733.81 429.11 731.69 452.05 729.57 474.99 C729.41 476.77 729.24 478.56 729.08 480.35 C727.32 499.42 725.55 518.5 723.79 537.57 C723.52 540.52 723.25 543.47 722.97 546.42 C722.88 547.4 722.79 548.38 722.7 549.38 C722.52 551.36 722.33 553.35 722.15 555.33 C721.69 560.28 721.23 565.24 720.78 570.19 C718.52 594.59 716.27 618.99 714.02 643.39 C712.52 659.65 711.02 675.92 709.51 692.18 C708.54 702.76 707.56 713.35 706.58 723.93 C705.92 731.11 705.26 738.28 704.6 745.46 C704.21 749.58 703.83 753.71 703.45 757.84 C703.11 761.62 702.76 765.4 702.41 769.17 C702.22 771.18 702.04 773.19 701.85 775.2 C701.3 781.19 700.7 787.16 699.9 793.13 C668.9 802.14 637.85 810.99 606.78 819.75 C605.87 820.01 604.96 820.26 604.03 820.53 C600.33 821.57 596.63 822.61 592.93 823.65 C591.08 824.18 589.23 824.7 587.37 825.22 C585.52 825.74 583.67 826.27 581.82 826.79 C563.09 832.07 544.37 837.37 525.65 842.69 C524.16 843.11 522.67 843.53 521.18 843.96 C514.41 845.88 507.63 847.81 500.86 849.73 C490.51 852.67 480.17 855.61 469.82 858.54 C462.47 860.63 455.11 862.72 447.76 864.8 C444.28 865.79 440.79 866.78 437.31 867.77 C435.64 868.25 433.97 868.72 432.3 869.2 C428.34 870.32 424.39 871.44 420.44 872.55 C414.02 874.37 407.62 876.19 401.24 878.15 C400.28 878.44 399.31 878.73 398.31 879.04 C396.63 879.55 394.94 880.07 393.26 880.62 C383.22 883.65 374.13 880.28 364.34 877.46 C362.99 877.08 361.63 876.69 360.28 876.31 C356.59 875.27 352.91 874.22 349.23 873.17 C345.26 872.03 341.29 870.91 337.32 869.78 C330.58 867.87 323.84 865.95 317.1 864.03 C307.37 861.26 297.64 858.49 287.91 855.73 C284.72 854.83 281.53 853.92 278.33 853.02 C277.54 852.79 276.74 852.56 275.92 852.33 C270.15 850.69 264.39 849.06 258.62 847.42 C239.92 842.1 221.22 836.8 202.51 831.51 C199.01 830.52 195.52 829.53 192.02 828.54 C178.26 824.65 178.26 824.65 164.5 820.76 C150.75 816.88 137 812.99 123.26 809.08 C119.72 808.07 116.18 807.07 112.65 806.07 C106.55 804.33 100.45 802.59 94.35 800.85 C92.02 800.18 89.68 799.52 87.34 798.86 C84.12 797.94 80.9 797.02 77.67 796.09 C76.71 795.82 75.74 795.55 74.75 795.27 C73.87 795.01 72.99 794.76 72.09 794.5 C71.33 794.28 70.56 794.06 69.77 793.84 C67.9 793.13 67.9 793.13 65.9 791.13 C65.45 788.3 65.11 785.55 64.84 782.71 C64.75 781.82 64.66 780.93 64.57 780.01 C64.27 776.99 63.98 773.96 63.69 770.93 C63.47 768.74 63.25 766.54 63.04 764.34 C62.31 756.94 61.6 749.53 60.9 742.13 C60.78 740.85 60.66 739.57 60.54 738.25 C58.66 718.43 56.85 698.6 55.03 678.78 C54.24 670.06 53.44 661.34 52.64 652.62 C51.14 636.32 49.65 620.01 48.15 603.71 C44.49 563.72 40.83 523.72 37.16 483.73 C36.53 476.85 35.9 469.98 35.27 463.1 C29 394.75 22.7 326.4 16.36 258.05 C15.31 246.66 14.25 235.26 13.2 223.86 C12.68 218.32 12.17 212.78 11.66 207.23 C11.06 200.75 10.45 194.26 9.85 187.78 C7.78 165.38 5.7 142.98 3.62 120.58 C2.36 106.97 1.09 93.37 -0.16 79.76 C-0.87 72.07 -1.58 64.39 -2.3 56.71 C-2.83 51.1 -3.35 45.48 -3.86 39.87 C-4.07 37.64 -4.27 35.42 -4.48 33.19 C-6.73 9.35 -6.73 9.35 -6.1 1.13 C-4.41 -0.56 -2.31 0 0 0 Z M-5.1 11.13 C-4.1 14.13 -4.1 14.13 -4.1 14.13 Z M-4.1 22.13 C-3.1 25.13 -3.1 25.13 -3.1 25.13 Z M-3.1 33.13 C-2.1 36.13 -2.1 36.13 -2.1 36.13 Z M-2.1 44.13 C-1.1 48.13 -1.1 48.13 -1.1 48.13 Z M-1.1 55.13 C-0.1 58.13 -0.1 58.13 -0.1 58.13 Z M-0.1 66.13 C0.9 69.13 0.9 69.13 0.9 69.13 Z M0.9 76.13 C1.9 79.13 1.9 79.13 1.9 79.13 Z M1.9 87.13 C2.9 90.13 2.9 90.13 2.9 90.13 Z M2.9 98.13 C3.9 101.13 3.9 101.13 3.9 101.13 Z M3.9 109.13 C4.9 112.13 4.9 112.13 4.9 112.13 Z M4.9 120.13 C5.9 123.13 5.9 123.13 5.9 123.13 Z M5.9 131.13 C6.9 135.13 6.9 135.13 6.9 135.13 Z M6.9 142.13 C7.9 145.13 7.9 145.13 7.9 145.13 Z M7.9 153.13 C8.9 156.13 8.9 156.13 8.9 156.13 Z M8.9 163.13 C9.9 166.13 9.9 166.13 9.9 166.13 Z M9.9 174.13 C10.9 177.13 10.9 177.13 10.9 177.13 Z M10.9 185.13 C11.9 187.13 11.9 187.13 11.9 187.13 Z M11.9 196.13 C12.9 199.13 12.9 199.13 12.9 199.13 Z M12.9 207.13 C13.9 210.13 13.9 210.13 13.9 210.13 Z M13.9 217.13 C14.9 221.13 14.9 221.13 14.9 221.13 Z M14.9 229.13 C15.9 232.13 15.9 232.13 15.9 232.13 Z M15.9 239.13 C16.9 243.13 16.9 243.13 16.9 243.13 Z M16.9 250.13 C17.9 253.13 17.9 253.13 17.9 253.13 Z M17.9 261.13 C18.9 264.13 18.9 264.13 18.9 264.13 Z M18.9 272.13 C19.9 274.13 19.9 274.13 19.9 274.13 Z M19.9 283.13 C20.9 286.13 20.9 286.13 20.9 286.13 Z M20.9 294.13 C21.9 296.13 21.9 296.13 21.9 296.13 Z M21.9 304.13 C22.9 308.13 22.9 308.13 22.9 308.13 Z M22.9 315.13 C23.9 319.13 23.9 319.13 23.9 319.13 Z M23.9 326.13 C24.9 330.13 24.9 330.13 24.9 330.13 Z M24.9 337.13 C25.9 340.13 25.9 340.13 25.9 340.13 Z M25.9 347.13 C26.9 350.13 26.9 350.13 26.9 350.13 Z M26.9 358.13 C27.9 361.13 27.9 361.13 27.9 361.13 Z M27.9 369.13 C28.9 373.13 28.9 373.13 28.9 373.13 Z M28.9 380.13 C29.9 383.13 29.9 383.13 29.9 383.13 Z M29.9 391.13 C30.9 395.13 30.9 395.13 30.9 395.13 Z M30.9 402.13 C31.9 406.13 31.9 406.13 31.9 406.13 Z M31.9 413.13 C32.9 416.13 32.9 416.13 32.9 416.13 Z M32.9 424.13 C33.9 427.13 33.9 427.13 33.9 427.13 Z M33.9 434.13 C34.9 437.13 34.9 437.13 34.9 437.13 Z M34.9 445.13 C35.9 448.13 35.9 448.13 35.9 448.13 Z M35.9 456.13 C36.9 459.13 36.9 459.13 36.9 459.13 Z M36.9 467.13 C37.9 470.13 37.9 470.13 37.9 470.13 Z M37.9 478.13 C38.9 482.13 38.9 482.13 38.9 482.13 Z M38.9 489.13 C39.9 493.13 39.9 493.13 39.9 493.13 Z M39.9 500.13 C40.9 503.13 40.9 503.13 40.9 503.13 Z M40.9 510.13 C41.9 514.13 41.9 514.13 41.9 514.13 Z M41.9 521.13 C42.9 524.13 42.9 524.13 42.9 524.13 Z M42.9 532.13 C43.9 535.13 43.9 535.13 43.9 535.13 Z M43.9 543.13 C44.9 546.13 44.9 546.13 44.9 546.13 Z M44.9 554.13 C45.9 557.13 45.9 557.13 45.9 557.13 Z M45.9 565.13 C46.9 569.13 46.9 569.13 46.9 569.13 Z M46.9 576.13 C47.9 579.13 47.9 579.13 47.9 579.13 Z M47.9 587.13 C48.9 590.13 48.9 590.13 48.9 590.13 Z M48.9 597.13 C49.9 600.13 49.9 600.13 49.9 600.13 Z M49.9 608.13 C50.9 611.13 50.9 611.13 50.9 611.13 Z M50.9 619.13 C51.9 621.13 51.9 621.13 51.9 621.13 Z M51.9 630.13 C52.9 633.13 52.9 633.13 52.9 633.13 Z M52.9 641.13 C53.9 644.13 53.9 644.13 53.9 644.13 Z M53.9 651.13 C54.9 655.13 54.9 655.13 54.9 655.13 Z M54.9 663.13 C55.9 666.13 55.9 666.13 55.9 666.13 Z M55.9 673.13 C56.9 677.13 56.9 677.13 56.9 677.13 Z M56.9 684.13 C57.9 687.13 57.9 687.13 57.9 687.13 Z M57.9 695.13 C58.9 698.13 58.9 698.13 58.9 698.13 Z M58.9 705.13 C59.9 708.13 59.9 708.13 59.9 708.13 Z M59.9 717.13 C60.9 720.13 60.9 720.13 60.9 720.13 Z M60.9 727.13 C61.9 730.13 61.9 730.13 61.9 730.13 Z M61.9 738.13 C62.9 742.13 62.9 742.13 62.9 742.13 Z M62.9 749.13 C63.9 753.13 63.9 753.13 63.9 753.13 Z M63.9 760.13 C64.9 763.13 64.9 763.13 64.9 763.13 Z M64.9 771.13 C65.9 774.13 65.9 774.13 65.9 774.13 Z M65.9 782.13 C66.9 784.13 66.9 784.13 66.9 784.13 Z " fill="#E9A52D" transform="translate(256.0976318717003,197.8746508359909)"/>
<path d="M0 0 C0.33 0.66 0.66 1.32 1 2 C1.99 1.67 2.98 1.34 4 1 C6.65 0.91 9.27 0.87 11.92 0.88 C12.73 0.88 13.55 0.88 14.39 0.88 C17.13 0.88 19.87 0.88 22.61 0.89 C24.57 0.89 26.53 0.89 28.49 0.89 C33.82 0.89 39.16 0.89 44.49 0.9 C50.06 0.9 55.63 0.91 61.2 0.91 C71.75 0.91 82.3 0.92 92.85 0.93 C104.86 0.94 116.87 0.94 128.88 0.95 C153.58 0.96 178.29 0.98 203 1 C204.45 5.04 205.41 8.86 206 13.11 C206.17 14.31 206.34 15.52 206.52 16.75 C206.7 18.06 206.88 19.37 207.06 20.71 C207.26 22.11 207.46 23.51 207.65 24.91 C208.19 28.7 208.72 32.49 209.24 36.29 C209.79 40.26 210.35 44.23 210.91 48.21 C211.84 54.88 212.77 61.55 213.7 68.22 C214.77 75.93 215.84 83.63 216.92 91.34 C217.96 98.76 219 106.18 220.03 113.6 C220.47 116.76 220.91 119.91 221.36 123.07 C221.88 126.78 222.39 130.5 222.91 134.22 C223.19 136.23 223.47 138.24 223.75 140.25 C224 142.05 224 142.05 224.25 143.89 C224.47 145.45 224.47 145.45 224.69 147.05 C225.01 150.05 225.05 152.98 225 156 C212.24 156.02 199.48 156.04 186.72 156.05 C180.79 156.06 174.87 156.06 168.95 156.08 C163.23 156.09 157.52 156.09 151.81 156.09 C149.62 156.1 147.44 156.1 145.25 156.11 C142.21 156.11 139.16 156.11 136.11 156.11 C135.2 156.12 134.28 156.12 133.34 156.12 C127.11 156.11 127.11 156.11 126 155 C125.79 153.28 125.64 151.56 125.52 149.84 C125.44 148.74 125.36 147.64 125.28 146.5 C125.19 145.3 125.11 144.11 125.03 142.87 C124.94 141.65 124.85 140.43 124.76 139.18 C124.48 135.26 124.21 131.35 123.94 127.44 C123.75 124.79 123.56 122.15 123.37 119.5 C122.91 113 122.45 106.5 122 100 C92.72 100.1 63.43 100.21 34.15 100.33 C30.7 100.34 27.24 100.36 23.79 100.37 C23.1 100.38 22.41 100.38 21.7 100.38 C10.56 100.42 -0.59 100.47 -11.74 100.5 C-23.17 100.55 -34.6 100.59 -46.03 100.64 C-52.45 100.66 -58.88 100.69 -65.3 100.71 C-71.34 100.73 -77.38 100.75 -83.41 100.78 C-85.64 100.79 -87.86 100.8 -90.08 100.8 C-93.11 100.81 -96.13 100.83 -99.15 100.84 C-100.49 100.84 -100.49 100.84 -101.85 100.84 C-105.74 100.49 -105.74 100.49 -109 102 C-110.33 110.11 -110.38 118.48 -110.75 126.68 C-110.82 128.09 -110.89 129.51 -110.95 130.92 C-111.09 133.88 -111.22 136.84 -111.36 139.8 C-111.53 143.53 -111.7 147.25 -111.88 150.98 C-112.02 153.9 -112.15 156.83 -112.28 159.75 C-112.37 161.77 -112.47 163.79 -112.57 165.81 C-112.91 173.56 -113.03 181.27 -113.02 189.02 C-113.02 189.98 -113.01 190.95 -113.01 191.94 C-113.01 194.29 -113.01 196.65 -113 199 C-112.29 199 -111.57 199 -110.83 199 C-68.51 198.98 -26.19 198.96 16.13 198.95 C21.2 198.95 26.28 198.95 31.35 198.95 C32.87 198.94 32.87 198.94 34.42 198.94 C50.8 198.94 67.19 198.93 83.57 198.92 C100.37 198.91 117.17 198.91 133.97 198.91 C144.35 198.9 154.72 198.9 165.1 198.89 C172.2 198.89 179.31 198.89 186.41 198.89 C190.52 198.89 194.62 198.89 198.73 198.88 C202.48 198.88 206.23 198.88 209.98 198.88 C212 198.88 214.01 198.88 216.02 198.87 C217.79 198.87 217.79 198.87 219.6 198.88 C220.62 198.88 221.65 198.88 222.71 198.88 C225 199 225 199 226 200 C226.46 208.08 225.78 216.14 225.02 224.17 C224.91 225.34 224.81 226.5 224.7 227.7 C224.41 230.9 224.11 234.09 223.82 237.29 C223.5 240.75 223.18 244.21 222.87 247.67 C222.25 254.43 221.62 261.19 221 267.95 C220.27 275.83 219.55 283.7 218.83 291.58 C217.54 305.62 216.24 319.66 214.95 333.71 C213.69 347.34 212.43 360.97 211.18 374.6 C209.82 389.45 208.46 404.31 207.09 419.16 C206.94 420.75 206.8 422.33 206.65 423.91 C206.58 424.69 206.51 425.47 206.43 426.27 C205.93 431.76 205.42 437.25 204.92 442.74 C204.31 449.43 203.69 456.11 203.07 462.79 C202.76 466.2 202.44 469.61 202.13 473.03 C201.79 476.72 201.45 480.41 201.11 484.1 C201.01 485.18 200.91 486.27 200.81 487.39 C200.72 488.37 200.62 489.36 200.53 490.37 C200.41 491.65 200.41 491.65 200.29 492.95 C200 495 200 495 199 497 C196.45 497.93 196.45 497.93 192.99 498.91 C192.36 499.09 191.72 499.28 191.07 499.46 C188.94 500.07 186.8 500.67 184.66 501.27 C183.14 501.7 181.62 502.13 180.09 502.57 C175.95 503.75 171.81 504.91 167.66 506.08 C163.31 507.31 158.95 508.54 154.59 509.78 C147.34 511.84 140.09 513.89 132.84 515.94 C121.76 519.06 110.69 522.21 99.61 525.36 C91.01 527.81 82.4 530.25 73.79 532.68 C70.79 533.53 67.79 534.38 64.79 535.23 C64.06 535.43 63.34 535.64 62.59 535.85 C54.02 538.27 45.46 540.73 36.92 543.26 C32.6 544.54 28.27 545.8 23.94 547.07 C21.11 547.9 18.29 548.76 15.47 549.62 C13.79 550.11 12.11 550.6 10.44 551.09 C9.72 551.32 9 551.55 8.26 551.78 C2.41 553.43 -2.2 552.56 -8 551 C-8.83 550.78 -9.67 550.56 -10.53 550.34 C-13.24 549.6 -15.93 548.83 -18.62 548.04 C-19.65 547.75 -20.68 547.45 -21.74 547.15 C-23.98 546.51 -26.21 545.86 -28.45 545.21 C-34.03 543.6 -39.61 542 -45.2 540.4 C-47.21 539.82 -49.23 539.24 -51.25 538.66 C-65.46 534.57 -79.69 530.54 -93.91 526.51 C-99.42 524.95 -104.93 523.39 -110.43 521.82 C-113.55 520.94 -116.67 520.05 -119.79 519.16 C-120.56 518.95 -121.32 518.73 -122.11 518.51 C-131 515.98 -139.89 513.46 -148.79 510.96 C-154.74 509.28 -160.69 507.6 -166.64 505.91 C-169.07 505.23 -171.49 504.54 -173.92 503.86 C-177.24 502.93 -180.55 502 -183.86 501.05 C-184.83 500.79 -185.79 500.52 -186.78 500.24 C-191.23 498.97 -195.24 497.8 -199 495 C-200.28 492.44 -200.35 490.3 -200.61 487.45 C-200.72 486.27 -200.84 485.09 -200.95 483.87 C-201.13 481.92 -201.13 481.92 -201.31 479.92 C-201.43 478.55 -201.56 477.17 -201.69 475.79 C-202.04 472.03 -202.38 468.28 -202.73 464.52 C-203.09 460.59 -203.45 456.67 -203.81 452.74 C-204.42 446.14 -205.03 439.54 -205.63 432.94 C-206.33 425.31 -207.03 417.68 -207.73 410.06 C-208.41 402.72 -209.09 395.39 -209.76 388.05 C-210.05 384.93 -210.33 381.81 -210.62 378.69 C-210.96 375.01 -211.3 371.33 -211.64 367.64 C-211.82 365.65 -212 363.66 -212.19 361.67 C-212.29 360.48 -212.4 359.29 -212.51 358.06 C-212.61 357.03 -212.7 356 -212.8 354.93 C-213.01 351.93 -213.17 349.01 -213 346 C-210.34 343.34 -208.36 343.75 -204.74 343.73 C-203.87 343.73 -202.99 343.74 -202.08 343.74 C-200.7 343.74 -200.7 343.74 -199.28 343.73 C-196.22 343.72 -193.16 343.73 -190.09 343.73 C-187.97 343.73 -185.85 343.73 -183.73 343.73 C-179.27 343.73 -174.82 343.73 -170.37 343.74 C-164.65 343.75 -158.94 343.74 -153.22 343.73 C-148.84 343.72 -144.45 343.73 -140.07 343.73 C-137.96 343.73 -135.85 343.73 -133.74 343.73 C-130.8 343.72 -127.86 343.73 -124.92 343.74 C-124.04 343.74 -123.16 343.73 -122.26 343.73 C-116.23 343.77 -116.23 343.77 -114 346 C-113.53 348.92 -113.53 348.92 -113.22 352.7 C-113.16 353.38 -113.1 354.07 -113.04 354.78 C-112.85 357.06 -112.67 359.34 -112.49 361.62 C-112.36 363.2 -112.23 364.78 -112.1 366.37 C-111.75 370.54 -111.41 374.71 -111.08 378.88 C-110.81 382.28 -110.53 385.68 -110.24 389.09 C-109.66 396.11 -109.08 403.14 -108.52 410.17 C-108.42 411.42 -108.32 412.67 -108.21 413.96 C-108.07 415.97 -108 417.98 -108 420 C-107.42 420.16 -106.83 420.31 -106.23 420.47 C-97.1 422.94 -88.01 425.56 -78.92 428.18 C-77.17 428.69 -75.43 429.19 -73.68 429.69 C-69.11 431 -64.55 432.32 -59.98 433.63 C-54.45 435.22 -48.93 436.81 -43.41 438.4 C-38.31 439.87 -33.2 441.34 -28.1 442.81 C-26.56 443.25 -25.02 443.69 -23.48 444.13 C-19.94 445.15 -16.41 446.17 -12.88 447.22 C-11.63 447.59 -10.38 447.95 -9.09 448.33 C-8.01 448.66 -6.92 448.98 -5.8 449.31 C-2.83 450.16 -2.83 450.16 1 450 C1 450.66 1 451.32 1 452 C1.85 451.71 2.69 451.42 3.56 451.11 C14.41 447.43 25.37 444.22 36.39 441.08 C38.31 440.53 40.23 439.98 42.16 439.43 C47.17 437.99 52.17 436.56 57.18 435.13 C64.28 433.1 71.38 431.06 78.47 429.03 C82.24 427.95 86.01 426.87 89.78 425.8 C91.49 425.31 93.2 424.82 94.91 424.33 C95.69 424.11 96.47 423.88 97.27 423.66 C100.2 422.82 103.11 421.96 106 421 C107.71 407.34 108.99 393.66 110.2 379.95 C110.4 377.67 110.6 375.4 110.8 373.12 C111.22 368.39 111.64 363.66 112.05 358.93 C112.58 352.87 113.12 346.8 113.67 340.74 C114.08 336.06 114.49 331.37 114.9 326.69 C115.1 324.45 115.3 322.22 115.5 319.98 C115.78 316.87 116.05 313.75 116.32 310.64 C116.4 309.72 116.49 308.8 116.58 307.85 C116.68 306.57 116.68 306.57 116.79 305.28 C116.86 304.54 116.92 303.81 116.99 303.05 C117 300.87 116.56 299.1 116 297 C115.3 297 114.6 297 113.87 296.99 C72.3 296.89 30.74 296.78 -10.83 296.67 C-15.82 296.66 -20.8 296.64 -25.79 296.63 C-26.78 296.62 -27.78 296.62 -28.8 296.62 C-44.89 296.58 -60.99 296.53 -77.08 296.5 C-93.58 296.45 -110.09 296.41 -126.59 296.36 C-136.78 296.33 -146.97 296.31 -157.16 296.28 C-164.14 296.27 -171.12 296.25 -178.09 296.23 C-182.13 296.21 -186.16 296.2 -190.19 296.2 C-193.88 296.19 -197.56 296.18 -201.25 296.16 C-203.23 296.16 -205.2 296.16 -207.18 296.16 C-208.34 296.15 -209.5 296.14 -210.69 296.14 C-211.7 296.14 -212.71 296.13 -213.75 296.13 C-216 296 -216 296 -217 295 C-216.97 292.66 -216.86 290.37 -216.71 288.04 C-216.66 287.29 -216.61 286.53 -216.56 285.76 C-215.82 274.62 -214.74 263.51 -213.7 252.39 C-213.46 249.85 -213.23 247.3 -212.99 244.76 C-212.49 239.31 -211.99 233.87 -211.48 228.42 C-210.75 220.53 -210.02 212.64 -209.29 204.75 C-208.1 191.93 -206.91 179.11 -205.73 166.29 C-204.57 153.88 -203.42 141.47 -202.27 129.06 C-202.2 128.29 -202.13 127.52 -202.06 126.74 C-201.29 118.37 -200.51 110 -199.74 101.64 C-199.53 99.41 -199.33 97.19 -199.12 94.97 C-198.98 93.5 -198.85 92.04 -198.71 90.57 C-197.85 81.28 -196.99 71.99 -196.13 62.7 C-195.64 57.37 -195.14 52.04 -194.65 46.71 C-194.42 44.25 -194.19 41.78 -193.96 39.32 C-193.65 35.95 -193.34 32.57 -193.02 29.2 C-192.93 28.23 -192.85 27.27 -192.75 26.27 C-192.67 25.36 -192.58 24.44 -192.5 23.49 C-192.41 22.6 -192.33 21.71 -192.24 20.79 C-192.07 18.8 -191.93 16.81 -191.82 14.81 C-191.75 13.76 -191.69 12.7 -191.62 11.61 C-191.57 10.66 -191.53 9.7 -191.48 8.72 C-190.92 5.53 -189.96 3.57 -188 1 C-185.3 0.48 -183.21 0.32 -180.5 0.36 C-179.73 0.35 -178.96 0.34 -178.17 0.34 C-175.58 0.31 -172.99 0.33 -170.4 0.34 C-168.55 0.33 -166.7 0.32 -164.84 0.31 C-159.81 0.28 -154.77 0.28 -149.73 0.29 C-144.47 0.29 -139.21 0.27 -133.95 0.25 C-123.98 0.21 -114.02 0.2 -104.05 0.19 C-92.71 0.19 -81.36 0.16 -70.02 0.12 C-46.68 0.05 -23.34 0.01 0 0 Z " fill="#FAFCFC" transform="translate(639,359)"/>
<path d="M0 0 C1.24 -0 2.49 -0 3.77 -0.01 C7.21 -0.01 10.66 -0.01 14.1 0 C17.82 0.01 21.54 0 25.26 -0 C32.54 -0.01 39.82 -0 47.1 0.01 C55.57 0.02 64.05 0.02 72.52 0.02 C87.64 0.02 102.76 0.03 117.88 0.04 C132.56 0.06 147.23 0.06 161.91 0.06 C162.81 0.06 163.72 0.06 164.65 0.06 C165.55 0.06 166.45 0.06 167.38 0.06 C184.09 0.06 200.79 0.07 217.49 0.08 C223.4 0.08 229.31 0.08 235.23 0.08 C242.42 0.08 249.62 0.09 256.82 0.09 C260.5 0.1 264.17 0.1 267.85 0.1 C271.83 0.1 275.8 0.11 279.78 0.11 C280.95 0.11 282.12 0.11 283.32 0.11 C284.91 0.11 284.91 0.11 286.54 0.12 C287.92 0.12 287.92 0.12 289.33 0.12 C291.64 0.24 293.58 0.48 295.76 1.25 C298.84 5.84 297.63 11.15 297.09 16.35 C296.94 17.92 296.94 17.92 296.79 19.53 C296.58 21.85 296.35 24.18 296.13 26.5 C295.69 31.03 295.28 35.56 294.87 40.09 C294.41 45.28 293.93 50.46 293.46 55.65 C293.38 56.44 293.31 57.24 293.24 58.05 C293.08 59.7 292.93 61.35 292.78 63 C292.37 67.43 291.97 71.87 291.56 76.3 C290.75 85.12 289.94 93.95 289.12 102.77 C288.45 110.11 287.77 117.45 287.1 124.79 C281.92 181.18 276.72 237.58 271.52 293.97 C271.32 296.23 271.11 298.49 270.9 300.75 C267.88 333.51 264.86 366.27 261.83 399.02 C260.59 412.46 259.35 425.9 258.11 439.35 C257.91 441.55 257.71 443.75 257.5 445.95 C254.21 481.62 250.93 517.29 247.69 552.97 C247.04 560.06 246.4 567.15 245.75 574.24 C245.66 575.2 245.57 576.16 245.48 577.14 C245.14 580.9 244.8 584.66 244.46 588.42 C243.5 598.87 242.55 609.32 241.61 619.78 C241.05 626.03 240.48 632.28 239.91 638.53 C239.59 642.02 239.27 645.51 238.96 649.01 C238.63 652.7 238.3 656.39 237.96 660.08 C237.86 661.14 237.77 662.2 237.68 663.29 C236.68 673.9 236.68 673.9 234.76 677.25 C232.22 678.72 229.58 679.47 226.76 680.25 C226.11 680.45 225.46 680.65 224.78 680.86 C222.74 681.49 220.69 682.08 218.63 682.66 C217.85 682.88 217.08 683.1 216.28 683.33 C213.71 684.07 211.14 684.79 208.57 685.52 C206.74 686.05 204.91 686.57 203.07 687.1 C198.14 688.5 193.21 689.91 188.28 691.31 C184.15 692.48 180.02 693.66 175.89 694.84 C147.36 702.97 118.81 711.05 90.24 719.08 C87.42 719.87 84.6 720.67 81.78 721.46 C81.09 721.65 80.4 721.85 79.69 722.05 C68.41 725.22 57.14 728.4 45.87 731.6 C44.71 731.93 44.71 731.93 43.52 732.27 C36.02 734.39 28.52 736.52 21.03 738.65 C18.32 739.42 15.61 740.19 12.9 740.96 C11.07 741.48 9.24 742 7.41 742.52 C5.22 743.14 3.03 743.76 0.84 744.37 C-1.22 744.96 -3.27 745.56 -5.32 746.18 C-6.77 746.61 -6.77 746.61 -8.25 747.04 C-9.52 747.43 -9.52 747.43 -10.81 747.82 C-13.62 748.31 -15.51 748.07 -18.24 747.25 C-20.89 744.6 -20.47 742.66 -20.47 739.06 C-20.46 738.19 -20.46 737.32 -20.45 736.42 C-20.45 735.51 -20.44 734.6 -20.44 733.65 C-20.44 730.62 -20.42 727.59 -20.4 724.56 C-20.39 722.46 -20.38 720.36 -20.38 718.26 C-20.37 712.72 -20.34 707.19 -20.31 701.65 C-20.27 692.79 -20.24 683.93 -20.22 675.06 C-20.21 671.96 -20.19 668.86 -20.17 665.75 C-20.17 663.86 -20.16 661.97 -20.15 660.07 C-20.15 659.2 -20.14 658.33 -20.13 657.44 C-20 653.21 -20 653.21 -21.24 649.25 C-7.84 645.41 5.56 641.58 18.95 637.75 C19.96 637.46 20.97 637.17 22.02 636.87 C57.09 626.84 92.19 616.89 127.3 606.99 C128.15 606.75 129 606.51 129.87 606.27 C133.93 605.12 137.99 603.98 142.04 602.84 C148.59 601 155.14 599.14 161.68 597.25 C162.68 596.96 163.68 596.67 164.71 596.37 C166.46 595.86 168.22 595.35 169.98 594.83 C173.01 593.95 175.59 593.25 178.76 593.25 C178.83 592.5 178.9 591.74 178.96 590.97 C182.63 549.06 186.39 507.16 190.29 465.27 C190.71 460.76 191.13 456.24 191.55 451.73 C193.37 432.1 195.2 412.46 197.03 392.83 C198 382.41 198.97 372 199.94 361.58 C200.54 355.09 201.15 348.59 201.76 342.09 C202.13 338.09 202.5 334.08 202.87 330.08 C203.04 328.24 203.21 326.4 203.39 324.55 C203.63 322.03 203.86 319.5 204.09 316.98 C204.16 316.27 204.23 315.55 204.3 314.82 C204.86 308.56 204.76 302.62 204.76 296.25 C93.22 295.92 -18.32 295.59 -133.24 295.25 C-134.76 292.2 -134.4 289.06 -134.39 285.72 C-134.39 284.9 -134.38 284.08 -134.38 283.23 C-134.27 269.79 -133.54 256.36 -132.9 242.93 C-132.76 239.92 -132.63 236.91 -132.49 233.9 C-132.36 230.97 -132.22 228.03 -132.09 225.1 C-132.02 223.72 -131.96 222.33 -131.9 220.95 C-131.62 214.78 -131.32 208.61 -130.81 202.45 C-130.75 201.68 -130.69 200.91 -130.62 200.11 C-130.24 198.25 -130.24 198.25 -128.24 196.25 C-125.21 196.05 -122.29 195.99 -119.26 196.01 C-117.85 196 -117.85 196 -116.41 196 C-113.24 196 -110.07 196.01 -106.9 196.02 C-104.63 196.02 -102.36 196.02 -100.1 196.02 C-93.93 196.02 -87.76 196.03 -81.59 196.04 C-75.15 196.06 -68.71 196.06 -62.27 196.06 C-51.45 196.07 -40.63 196.08 -29.82 196.1 C-18.68 196.11 -7.53 196.13 3.61 196.14 C4.29 196.14 4.98 196.14 5.69 196.14 C9.13 196.14 12.58 196.14 16.02 196.15 C44.6 196.17 73.18 196.2 101.76 196.25 C102.99 198.7 103.04 200.6 103.25 203.34 C103.33 204.42 103.41 205.49 103.49 206.6 C103.57 207.73 103.65 208.87 103.74 210.04 C103.81 211.08 103.89 212.12 103.97 213.19 C104.26 217.08 104.54 220.98 104.83 224.87 C105.47 233.58 106.11 242.28 106.76 251.25 C155.27 251.74 155.27 251.74 204.76 252.25 C203.67 244.51 202.57 236.77 201.44 228.79 C200.73 223.81 200.03 218.82 199.32 213.84 C198.21 205.97 197.09 198.11 195.98 190.24 C194.9 182.66 193.83 175.07 192.75 167.48 C192.58 166.25 192.4 165.01 192.22 163.74 C189.86 147.03 187.51 130.31 185.21 113.58 C185.03 112.28 184.85 110.98 184.66 109.64 C184.51 108.54 184.36 107.44 184.2 106.3 C183.77 103.28 183.27 100.26 182.76 97.25 C116.1 97.58 49.44 97.91 -19.24 98.25 C-20.86 94.99 -20.38 91.4 -20.38 87.82 C-20.38 86.95 -20.39 86.08 -20.39 85.18 C-20.4 82.29 -20.4 79.4 -20.4 76.51 C-20.41 74.5 -20.41 72.49 -20.41 70.49 C-20.42 66.28 -20.42 62.07 -20.42 57.86 C-20.42 52.47 -20.43 47.07 -20.45 41.68 C-20.46 37.53 -20.46 33.39 -20.46 29.25 C-20.47 27.26 -20.47 25.27 -20.48 23.28 C-20.49 20.49 -20.48 17.71 -20.48 14.93 C-20.48 14.11 -20.49 13.28 -20.5 12.43 C-20.45 4.83 -20.45 4.83 -18.24 2.25 C-12.39 -0.48 -6.31 -0.03 0 0 Z " fill="#F1BF24" transform="translate(659.2356262207031,262.7527618408203)"/>
<path d="M0 0 C0.33 0.66 0.66 1.32 1 2 C1.99 1.67 2.98 1.34 4 1 C6.65 0.91 9.27 0.87 11.92 0.88 C12.73 0.88 13.55 0.88 14.39 0.88 C17.13 0.88 19.87 0.88 22.61 0.89 C24.57 0.89 26.53 0.89 28.49 0.89 C33.82 0.89 39.16 0.89 44.49 0.9 C50.06 0.9 55.63 0.91 61.2 0.91 C71.75 0.91 82.3 0.92 92.85 0.93 C104.86 0.94 116.87 0.94 128.88 0.95 C153.58 0.96 178.29 0.98 203 1 C204.45 5.04 205.41 8.86 206 13.11 C206.17 14.31 206.34 15.52 206.52 16.75 C206.7 18.06 206.88 19.37 207.06 20.71 C207.26 22.11 207.46 23.51 207.65 24.91 C208.19 28.7 208.72 32.49 209.24 36.29 C209.79 40.26 210.35 44.23 210.91 48.21 C211.84 54.88 212.77 61.55 213.7 68.22 C214.77 75.93 215.84 83.63 216.92 91.34 C217.96 98.76 219 106.18 220.03 113.6 C220.47 116.76 220.91 119.91 221.36 123.07 C221.88 126.78 222.39 130.5 222.91 134.22 C223.19 136.23 223.47 138.24 223.75 140.25 C224 142.05 224 142.05 224.25 143.89 C224.47 145.45 224.47 145.45 224.69 147.05 C225.01 150.05 225.05 152.98 225 156 C212.24 156.02 199.48 156.04 186.72 156.05 C180.79 156.06 174.87 156.06 168.95 156.08 C163.23 156.09 157.52 156.09 151.81 156.09 C149.62 156.1 147.44 156.1 145.25 156.11 C142.21 156.11 139.16 156.11 136.11 156.11 C135.2 156.12 134.28 156.12 133.34 156.12 C127.11 156.11 127.11 156.11 126 155 C125.79 153.28 125.64 151.56 125.52 149.84 C125.44 148.74 125.36 147.64 125.28 146.5 C125.19 145.3 125.11 144.11 125.03 142.87 C124.94 141.65 124.85 140.43 124.76 139.18 C124.48 135.26 124.21 131.35 123.94 127.44 C123.75 124.79 123.56 122.15 123.37 119.5 C122.91 113 122.45 106.5 122 100 C92.72 100.1 63.43 100.21 34.15 100.33 C30.7 100.34 27.24 100.36 23.79 100.37 C23.1 100.38 22.41 100.38 21.7 100.38 C10.56 100.42 -0.59 100.47 -11.74 100.5 C-23.17 100.55 -34.6 100.59 -46.03 100.64 C-52.45 100.66 -58.88 100.69 -65.3 100.71 C-71.34 100.73 -77.38 100.75 -83.41 100.78 C-85.64 100.79 -87.86 100.8 -90.08 100.8 C-93.11 100.81 -96.13 100.83 -99.15 100.84 C-100.49 100.84 -100.49 100.84 -101.85 100.84 C-105.74 100.49 -105.74 100.49 -109 102 C-110.33 110.11 -110.38 118.48 -110.75 126.68 C-110.82 128.09 -110.89 129.51 -110.95 130.92 C-111.09 133.88 -111.22 136.84 -111.36 139.8 C-111.53 143.53 -111.7 147.25 -111.88 150.98 C-112.02 153.9 -112.15 156.83 -112.28 159.75 C-112.37 161.77 -112.47 163.79 -112.57 165.81 C-113.06 176.88 -113.07 187.93 -113 199 C-112.43 199 -111.86 199 -111.27 199 C-97.41 198.98 -83.55 198.96 -69.69 198.95 C-62.98 198.94 -56.28 198.94 -49.58 198.92 C-43.11 198.91 -36.65 198.91 -30.18 198.91 C-27.71 198.9 -25.24 198.9 -22.77 198.89 C-19.32 198.89 -15.87 198.89 -12.42 198.89 C-11.39 198.88 -10.36 198.88 -9.29 198.88 C-8.36 198.88 -7.42 198.88 -6.45 198.88 C-5.64 198.88 -4.82 198.88 -3.98 198.88 C-2 199 -2 199 0 200 C0 231.68 0 263.36 0 296 C-54.13 296.04 -54.13 296.04 -76.73 296.05 C-92.37 296.05 -108 296.06 -123.64 296.08 C-135.02 296.09 -146.41 296.09 -157.79 296.09 C-163.83 296.1 -169.86 296.1 -175.89 296.11 C-181.56 296.11 -187.23 296.11 -192.9 296.11 C-194.99 296.11 -197.08 296.12 -199.17 296.12 C-202.01 296.12 -204.84 296.12 -207.68 296.12 C-208.94 296.12 -208.94 296.12 -210.22 296.13 C-215.89 296.11 -215.89 296.11 -217 295 C-216.97 292.66 -216.86 290.37 -216.71 288.04 C-216.66 287.29 -216.61 286.53 -216.56 285.76 C-215.82 274.62 -214.74 263.51 -213.7 252.39 C-213.46 249.85 -213.23 247.3 -212.99 244.76 C-212.49 239.31 -211.99 233.87 -211.48 228.42 C-210.75 220.53 -210.02 212.64 -209.29 204.75 C-208.1 191.93 -206.91 179.11 -205.73 166.29 C-204.57 153.88 -203.42 141.47 -202.27 129.06 C-202.2 128.29 -202.13 127.52 -202.06 126.74 C-201.29 118.37 -200.51 110 -199.74 101.64 C-199.53 99.41 -199.33 97.19 -199.12 94.97 C-198.98 93.5 -198.85 92.04 -198.71 90.57 C-197.85 81.28 -196.99 71.99 -196.13 62.7 C-195.64 57.37 -195.14 52.04 -194.65 46.71 C-194.42 44.25 -194.19 41.78 -193.96 39.32 C-193.65 35.95 -193.34 32.57 -193.02 29.2 C-192.93 28.23 -192.85 27.27 -192.75 26.27 C-192.67 25.36 -192.58 24.44 -192.5 23.49 C-192.41 22.6 -192.33 21.71 -192.24 20.79 C-192.07 18.8 -191.93 16.81 -191.82 14.81 C-191.75 13.76 -191.69 12.7 -191.62 11.61 C-191.57 10.66 -191.53 9.7 -191.48 8.72 C-190.92 5.53 -189.96 3.57 -188 1 C-185.3 0.48 -183.21 0.32 -180.5 0.36 C-179.73 0.35 -178.96 0.34 -178.17 0.34 C-175.58 0.31 -172.99 0.33 -170.4 0.34 C-168.55 0.33 -166.7 0.32 -164.84 0.31 C-159.81 0.28 -154.77 0.28 -149.73 0.29 C-144.47 0.29 -139.21 0.27 -133.95 0.25 C-123.98 0.21 -114.02 0.2 -104.05 0.19 C-92.71 0.19 -81.36 0.16 -70.02 0.12 C-46.68 0.05 -23.34 0.01 0 0 Z " fill="#ECEFEE" transform="translate(639,359)"/>
<path d="M0 0 C0.88 0 1.76 0.01 2.66 0.01 C4.05 0.01 4.05 0.01 5.46 0 C8.52 -0.01 11.59 -0 14.65 0.01 C16.77 0 18.9 0 21.02 -0 C25.47 -0 29.92 0 34.37 0.01 C40.09 0.02 45.81 0.02 51.52 0 C55.91 -0 60.29 -0 64.68 0 C66.78 0 68.89 0 71 -0 C73.94 -0.01 76.89 0 79.83 0.01 C80.71 0.01 81.58 0 82.49 0 C88.52 0.04 88.52 0.04 90.74 2.27 C91.21 5.19 91.21 5.19 91.52 8.97 C91.58 9.66 91.64 10.34 91.7 11.05 C91.89 13.33 92.07 15.61 92.25 17.89 C92.38 19.47 92.51 21.06 92.65 22.64 C92.99 26.81 93.33 30.98 93.66 35.15 C93.94 38.55 94.22 41.95 94.5 45.36 C95.08 52.39 95.66 59.41 96.23 66.44 C96.33 67.69 96.43 68.94 96.53 70.23 C96.67 72.24 96.74 74.26 96.74 76.27 C97.62 76.51 97.62 76.51 98.52 76.75 C107.65 79.21 116.74 81.84 125.83 84.45 C127.57 84.96 129.32 85.46 131.06 85.96 C135.63 87.27 140.2 88.59 144.77 89.91 C150.29 91.5 155.81 93.08 161.33 94.67 C166.44 96.14 171.54 97.61 176.65 99.08 C178.18 99.52 179.72 99.96 181.26 100.41 C184.8 101.42 188.34 102.44 191.86 103.49 C193.11 103.86 194.36 104.22 195.65 104.6 C196.74 104.93 197.82 105.25 198.94 105.58 C201.91 106.43 201.91 106.43 205.74 106.27 C205.74 140.26 205.74 174.25 205.74 209.27 C187.37 204.68 187.37 204.68 180.42 202.67 C179.61 202.44 178.8 202.21 177.97 201.97 C175.36 201.22 172.75 200.47 170.14 199.72 C168.27 199.18 166.39 198.65 164.52 198.11 C160.57 196.98 156.62 195.85 152.67 194.71 C143.41 192.05 134.15 189.4 124.88 186.75 C121.82 185.88 118.76 185 115.71 184.12 C101.17 179.96 86.64 175.83 72.09 171.72 C68.98 170.85 65.87 169.97 62.75 169.08 C60.79 168.53 58.82 167.97 56.86 167.41 C55.93 167.15 55 166.88 54.04 166.61 C48.39 165.01 42.73 163.43 37.07 161.86 C33.43 160.85 29.79 159.82 26.16 158.8 C24.49 158.33 22.83 157.87 21.16 157.41 C18.93 156.8 16.71 156.17 14.49 155.54 C13.25 155.2 12.01 154.85 10.73 154.5 C7.38 153.12 6.57 152.32 4.74 149.27 C4.17 146.59 4.17 146.59 3.89 143.48 C3.72 141.7 3.72 141.7 3.55 139.89 C3.44 138.6 3.32 137.3 3.21 135.97 C3.08 134.59 2.95 133.21 2.83 131.83 C2.48 128.08 2.14 124.34 1.82 120.59 C1.47 116.67 1.11 112.75 0.75 108.82 C0.14 102.24 -0.45 95.65 -1.04 89.06 C-1.86 79.77 -2.71 70.49 -3.55 61.21 C-4.14 54.77 -4.72 48.33 -5.31 41.9 C-5.45 40.34 -5.59 38.78 -5.73 37.22 C-6.13 32.77 -6.53 28.33 -6.93 23.88 C-7.1 21.89 -7.28 19.91 -7.46 17.92 C-7.57 16.73 -7.67 15.54 -7.78 14.32 C-7.87 13.29 -7.97 12.26 -8.06 11.2 C-8.26 8.19 -8.42 5.28 -8.26 2.27 C-5.6 -0.39 -3.62 0.03 0 0 Z " fill="#ECEFEE" transform="translate(434.2554473876953,702.7289428710938)"/>
<path d="M0 0 C0.82 -0 1.63 -0 2.47 -0 C5.21 -0 7.95 0 10.69 0.01 C12.65 0.01 14.61 0.01 16.58 0.01 C21.91 0.01 27.24 0.01 32.57 0.02 C38.14 0.03 43.71 0.03 49.28 0.03 C59.83 0.03 70.38 0.04 80.93 0.05 C92.94 0.06 104.95 0.06 116.96 0.07 C141.67 0.08 166.38 0.1 191.08 0.12 C192.53 4.16 193.49 7.98 194.08 12.23 C194.26 13.43 194.43 14.64 194.6 15.88 C194.78 17.18 194.96 18.49 195.15 19.83 C195.34 21.23 195.54 22.63 195.74 24.03 C196.27 27.82 196.8 31.62 197.33 35.41 C197.88 39.38 198.43 43.35 198.99 47.33 C199.92 54 200.85 60.67 201.78 67.34 C202.85 75.05 203.93 82.75 205.01 90.46 C206.05 97.88 207.08 105.3 208.12 112.72 C208.56 115.88 209 119.03 209.44 122.19 C209.96 125.9 210.48 129.62 210.99 133.34 C211.27 135.35 211.55 137.36 211.84 139.37 C212.09 141.17 212.09 141.17 212.34 143.01 C212.56 144.57 212.56 144.57 212.78 146.17 C213.09 149.17 213.14 152.1 213.08 155.12 C200.32 155.14 187.56 155.16 174.8 155.17 C168.88 155.18 162.95 155.18 157.03 155.2 C151.32 155.21 145.61 155.21 139.89 155.22 C137.71 155.22 135.52 155.22 133.34 155.23 C130.29 155.23 127.24 155.23 124.19 155.23 C123.28 155.24 122.37 155.24 121.43 155.24 C115.2 155.23 115.2 155.23 114.08 154.12 C112.1 126.9 112.1 126.9 110.08 99.12 C69.82 99.12 29.56 99.12 -11.92 99.12 C-11.94 83.69 -11.96 68.27 -11.98 52.37 C-11.99 47.5 -12 42.63 -12.01 37.61 C-12.01 31.66 -12.01 31.66 -12.01 28.88 C-12.01 26.93 -12.02 24.99 -12.02 23.04 C-12.03 20.1 -12.03 17.15 -12.03 14.2 C-12.03 13.34 -12.04 12.47 -12.04 11.58 C-12.04 10.78 -12.04 9.99 -12.04 9.17 C-12.04 8.48 -12.04 7.79 -12.04 7.08 C-11.9 4.93 -11.68 3.14 -10.92 1.12 C-7.23 -0.11 -3.84 -0.01 0 0 Z " fill="#FAFCFC" transform="translate(650.9155731201172,359.87974548339844)"/>
<path d="M0 0 C15.22 -0.05 30.44 -0.08 45.66 -0.1 C52.73 -0.11 59.79 -0.13 66.86 -0.15 C73.68 -0.17 80.49 -0.18 87.3 -0.19 C89.91 -0.19 92.52 -0.2 95.12 -0.21 C98.76 -0.23 102.4 -0.23 106.03 -0.23 C107.12 -0.23 108.21 -0.24 109.33 -0.25 C110.81 -0.24 110.81 -0.24 112.32 -0.24 C113.61 -0.24 113.61 -0.24 114.93 -0.25 C117 0 117 0 119 2 C119.08 4.13 119.08 4.13 118.85 6.81 C118.76 7.83 118.68 8.85 118.59 9.89 C118.49 11.01 118.38 12.13 118.28 13.28 C118.13 15.04 118.13 15.04 117.97 16.84 C117.7 20.05 117.41 23.27 117.12 26.49 C116.82 29.85 116.53 33.21 116.23 36.57 C115.87 40.76 115.5 44.95 115.13 49.14 C114.32 58.3 113.54 67.47 112.79 76.64 C112.4 81.28 112.02 85.91 111.63 90.55 C111.42 93.09 111.21 95.64 111 98.18 C110.71 101.73 110.41 105.28 110.11 108.84 C110.03 109.88 109.95 110.93 109.86 112.01 C109.78 112.98 109.69 113.95 109.61 114.95 C109.5 116.2 109.5 116.2 109.4 117.48 C108.91 120.59 108.33 123.13 107 126 C104.55 127.37 104.55 127.37 101.41 128.25 C100.23 128.6 99.05 128.94 97.83 129.3 C96.53 129.65 95.23 130 93.92 130.36 C92.57 130.74 91.22 131.13 89.86 131.52 C86.25 132.56 82.62 133.56 78.99 134.56 C75.26 135.6 71.54 136.66 67.82 137.72 C61.93 139.4 56.03 141.06 50.14 142.71 C43.18 144.66 36.24 146.66 29.3 148.69 C28.39 148.95 27.49 149.22 26.55 149.49 C24.86 149.99 23.16 150.49 21.46 150.99 C17.71 152.08 13.97 153.18 10.22 154.26 C9.05 154.6 7.89 154.94 6.68 155.29 C4 156 4 156 2 156 C0.63 153.25 0.88 151.08 0.89 148 C0.89 146.72 0.89 145.44 0.89 144.13 C0.89 142.7 0.9 141.28 0.9 139.85 C0.9 138.36 0.91 136.86 0.91 135.37 C0.91 132.15 0.92 128.92 0.92 125.7 C0.94 120.61 0.94 115.52 0.95 110.42 C0.96 98.7 0.98 86.97 1.01 75.24 C1.03 64.49 1.04 53.75 1.05 43 C1.06 37.93 1.07 32.87 1.08 27.8 C1.09 24.66 1.09 21.51 1.09 18.36 C1.1 16.9 1.1 15.44 1.11 13.97 C1.11 11.98 1.11 9.99 1.11 8 C1.12 6.88 1.12 5.76 1.12 4.61 C1.18 2.02 1.18 2.02 0 0 Z " fill="#F1BF24" transform="translate(638,655)"/>
<path d="M0 0 C0.78 0 1.57 0 2.38 0 C3.28 -0 4.18 -0.01 5.11 -0.01 C6.1 -0.01 7.09 0 8.11 0.01 C9.15 0 10.19 0 11.26 0 C14.71 -0 18.17 0.01 21.62 0.02 C24.01 0.02 26.4 0.02 28.79 0.02 C33.81 0.02 38.83 0.03 43.84 0.04 C50.29 0.06 56.73 0.06 63.17 0.06 C68.11 0.06 73.05 0.07 77.99 0.08 C80.37 0.08 82.75 0.08 85.12 0.08 C88.44 0.08 91.75 0.09 95.07 0.1 C96.06 0.1 97.05 0.1 98.07 0.1 C99.42 0.11 99.42 0.11 100.8 0.12 C101.58 0.12 102.37 0.12 103.18 0.12 C105.09 0.25 105.09 0.25 107.09 1.25 C107.09 33.59 107.09 65.93 107.09 99.25 C69.47 99.25 31.85 99.25 -6.91 99.25 C-8.43 96.21 -8.08 93.06 -8.06 89.72 C-8.06 88.9 -8.06 88.08 -8.06 87.24 C-7.95 73.79 -7.21 60.36 -6.58 46.93 C-6.44 43.92 -6.3 40.91 -6.17 37.9 C-6.03 34.97 -5.9 32.04 -5.76 29.1 C-5.7 27.72 -5.64 26.33 -5.57 24.95 C-5.29 18.78 -4.99 12.61 -4.49 6.45 C-4.43 5.68 -4.36 4.91 -4.3 4.11 C-3.74 1.43 -2.74 0.36 0 0 Z " fill="#E9A52D" transform="translate(532.9115676879883,458.7511110305786)"/>
<path d="" fill="#E9A52D" transform="translate(0,0)"/>
</svg>
